<?xml version="1.0" encoding="utf-8"?>
<!-- Generator: Adobe Illustrator 16.0.0, SVG Export Plug-In . SVG Version: 6.00 Build 0)  -->
<!DOCTYPE svg PUBLIC "-//W3C//DTD SVG 1.1//EN" "http://www.w3.org/Graphics/SVG/1.1/DTD/svg11.dtd">
<svg version="1.1" id="图层_1" xmlns="http://www.w3.org/2000/svg" xmlns:xlink="http://www.w3.org/1999/xlink" x="0px" y="0px"
	 width="200px" height="200px" viewBox="0 0 200 200" enable-background="new 0 0 200 200" xml:space="preserve">
<path fill="#5B5B5B" d="M55.556,55.556c-24.444,0-44.444,20-44.444,44.444s20,44.444,44.444,44.444S100,124.444,100,100
	S80,55.556,55.556,55.556 M55.556,133.334c-18.889,0-33.333-14.445-33.333-33.334s14.444-33.333,33.333-33.333
	c18.889,0,33.333,14.445,33.333,33.333S74.444,133.334,55.556,133.334 M161.111,11.111c-15.556,0-27.777,12.223-27.777,27.778
	c0,15.555,12.222,27.777,27.777,27.777c15.555,0,27.777-12.222,27.777-27.777C188.889,23.333,176.666,11.111,161.111,11.111
	 M161.111,55.556c-8.889,0-16.667-7.778-16.667-16.667c0-8.889,7.778-16.667,16.667-16.667S177.777,30,177.777,38.889
	C177.777,47.778,170,55.556,161.111,55.556 M161.111,133.334c-15.556,0-27.777,12.222-27.777,27.777
	c0,15.555,12.222,27.777,27.777,27.777c15.555,0,27.777-12.223,27.777-27.777C188.889,145.556,176.666,133.334,161.111,133.334
	 M161.111,177.777c-8.889,0-16.667-7.777-16.667-16.666s7.778-16.667,16.667-16.667s16.666,7.778,16.666,16.667
	S170,177.777,161.111,177.777"/>
<path fill="#5B5B5B" d="M88.355,112.934l57.733,33.333l-5.556,9.622L82.8,122.556L88.355,112.934z M146.389,54.355L88.656,87.689
	L83.1,78.067l57.734-33.333L146.389,54.355z"/>
</svg>
